<svg xmlns="http://www.w3.org/2000/svg" viewBox="0 0 38 38" class="svg brand-open_collective" width="16" height="16" aria-hidden="true"><g fill="none" fill-rule="evenodd"><path fill="#7fadf2" d="M34.62 8.179C36.75 11.249 38 14.979 38 19s-1.25 7.75-3.38 10.821L29.697 24.9c.966-1.748 1.516-3.76 1.516-5.899s-.55-4.15-1.516-5.9zM29.82 3.38 24.9 8.302A12.16 12.16 0 0 0 19 6.786C12.254 6.786 6.786 12.254 6.786 19S12.254 31.214 19 31.214c2.14 0 4.15-.55 5.9-1.516l4.921 4.921A18.9 18.9 0 0 1 19 38C8.507 38 0 29.493 0 19S8.507 0 19 0c4.021 0 7.75 1.25 10.821 3.38"/><path fill="#b8d3f4" d="M34.62 8.179C36.75 11.249 38 14.979 38 19s-1.25 7.75-3.38 10.821L29.697 24.9c.966-1.748 1.516-3.76 1.516-5.899s-.55-4.15-1.516-5.9z"/></g></svg>